<?xml version="1.0" encoding="UTF-8"?>
<svg width="34px" height="34px" viewBox="0 0 34 34" version="1.1" xmlns="http://www.w3.org/2000/svg" xmlns:xlink="http://www.w3.org/1999/xlink">
    <title>Group 4</title>
    <g id="Desktop" stroke="none" stroke-width="1" fill="none" fill-rule="evenodd">
        <g id="About" transform="translate(-253.000000, -803.000000)">
            <g id="Group-4" transform="translate(254.000000, 804.000000)">
                <path d="M27.4285714,32 L4.57142857,32 C2.0472381,32 0,29.9527619 0,27.4285714 L0,4.57142857 C0,2.0472381 2.0472381,0 4.57142857,0 L27.4285714,0 C29.9527619,0 32,2.0472381 32,4.57142857 L32,27.4285714 C32,29.9527619 29.9527619,32 27.4285714,32 Z" id="Stroke-5" stroke="#51D3F5" stroke-width="2" stroke-linecap="round"></path>
                <path d="M23.6190476,16 C23.6190476,20.2072381 20.2072381,23.6190476 16,23.6190476 C11.7927619,23.6190476 8.38095238,20.2072381 8.38095238,16 C8.38095238,11.792 11.7927619,8.38095238 16,8.38095238 C20.2072381,8.38095238 23.6190476,11.792 23.6190476,16 Z" id="Stroke-7" stroke="#51D3F5" stroke-width="2" stroke-linecap="round"></path>
                <path d="M27.4285714,6.28015238 C27.4285714,7.22415238 26.663619,7.98910476 25.720381,7.98910476 C24.776381,7.98910476 24.0114286,7.22415238 24.0114286,6.28015238 C24.0114286,5.33615238 24.776381,4.5712 25.720381,4.5712 C26.663619,4.5712 27.4285714,5.33615238 27.4285714,6.28015238" id="Fill-9" fill="#51D3F5"></path>
            </g>
        </g>
    </g>
</svg>