<?xml version="1.0" encoding="UTF-8"?>
<svg width="34px" height="34px" viewBox="0 0 34 34" version="1.1" xmlns="http://www.w3.org/2000/svg" xmlns:xlink="http://www.w3.org/1999/xlink">
    <title>Group 5</title>
    <g id="Desktop" stroke="none" stroke-width="1" fill="none" fill-rule="evenodd">
        <g id="About" transform="translate(-354.000000, -803.000000)">
            <g id="Group-5" transform="translate(355.000000, 804.000000)">
                <path d="M27.4285714,32 L4.57142857,32 C2.0472381,32 0,29.9527619 0,27.4285714 L0,4.57142857 C0,2.0472381 2.0472381,0 4.57142857,0 L27.4285714,0 C29.9527619,0 32,2.0472381 32,4.57142857 L32,27.4285714 C32,29.9527619 29.9527619,32 27.4285714,32 Z" id="Stroke-11" stroke="#51D3F5" stroke-width="2" stroke-linecap="round"></path>
                <path d="M11.8065524,9.97173333 C11.8065524,11.0330667 10.9456,11.894019 9.88502857,11.894019 C8.82293333,11.894019 7.96198095,11.0330667 7.96198095,9.97173333 C7.96198095,8.9104 8.82293333,8.05020952 9.88502857,8.05020952 C10.9456,8.05020952 11.8065524,8.9104 11.8065524,9.97173333" id="Fill-13" fill="#51D3F5"></path>
                <polygon id="Fill-15" fill="#51D3F5" points="8.31238095 23.9504762 11.632 23.9504762 11.632 13.2921905 8.31238095 13.2921905"></polygon>
                <path d="M20.5431619,13.1168 C18.4349714,13.1168 17.4201143,13.9678476 17.0483048,14.3868952 L17.0483048,13.2912762 L13.7286857,13.2912762 L13.7286857,23.9503238 L17.0483048,23.9503238 L17.0483048,17.3667048 C17.2738286,16.6886095 17.7896381,15.9122286 18.9705905,15.9122286 C21.0665905,15.9122286 20.7176381,18.6215619 20.7176381,18.6215619 L20.7176381,23.9503238 L24.038019,23.9503238 L24.038019,18.6215619 C24.038019,15.2135619 23.3385905,13.1168 20.5431619,13.1168" id="Fill-17" fill="#51D3F5"></path>
            </g>
        </g>
    </g>
</svg>