<?xml version="1.0" encoding="UTF-8"?>
<svg width="1440px" height="1024px" viewBox="0 0 1440 1024" version="1.1" xmlns="http://www.w3.org/2000/svg" xmlns:xlink="http://www.w3.org/1999/xlink">
    <!-- Generator: Sketch 62 (91390) - https://sketch.com -->
    <title>About</title>
    <desc>Created with Sketch.</desc>
    <g id="About" stroke="none" stroke-width="1" fill="none" fill-rule="evenodd">
        <circle id="Oval" fill="#FBF6F4" cx="1208.5" cy="210.5" r="92.5"></circle>
        <path d="M724.708311,751.55916 L788.05972,850.299978 C789.550901,852.624163 788.875618,855.71713 786.551432,857.208311 C785.745763,857.725222 784.808645,858 783.851409,858 L657.148591,858 C654.387167,858 652.148591,855.761424 652.148591,853 C652.148591,852.042764 652.423368,851.105647 652.94028,850.299978 L716.291689,751.55916 C717.78287,749.234974 720.875837,748.559691 723.200022,750.050872 C723.805422,750.439292 724.31989,750.95376 724.708311,751.55916 Z" id="Triangle" fill="#FBF6F4"></path>
        <g id="Group-2-Copy-5" transform="translate(1116.000000, 881.000000)" fill="#8E7F79">
            <circle id="Oval" cx="1" cy="1" r="1"></circle>
            <circle id="Oval-Copy-256" cx="1" cy="97" r="1"></circle>
            <circle id="Oval-Copy-128" cx="1" cy="49" r="1"></circle>
            <circle id="Oval-Copy-64" cx="193" cy="1" r="1"></circle>
            <circle id="Oval-Copy-258" cx="193" cy="97" r="1"></circle>
            <circle id="Oval-Copy-129" cx="193" cy="49" r="1"></circle>
            <circle id="Oval-Copy-32" cx="1" cy="25" r="1"></circle>
            <circle id="Oval-Copy-260" cx="1" cy="121" r="1"></circle>
            <circle id="Oval-Copy-130" cx="1" cy="73" r="1"></circle>
            <circle id="Oval-Copy-65" cx="193" cy="25" r="1"></circle>
            <circle id="Oval-Copy-262" cx="193" cy="121" r="1"></circle>
            <circle id="Oval-Copy-131" cx="193" cy="73" r="1"></circle>
            <circle id="Oval-Copy-16" cx="1" cy="13" r="1"></circle>
            <circle id="Oval-Copy-264" cx="1" cy="109" r="1"></circle>
            <circle id="Oval-Copy-132" cx="1" cy="61" r="1"></circle>
            <circle id="Oval-Copy-66" cx="193" cy="13" r="1"></circle>
            <circle id="Oval-Copy-266" cx="193" cy="109" r="1"></circle>
            <circle id="Oval-Copy-133" cx="193" cy="61" r="1"></circle>
            <circle id="Oval-Copy-33" cx="1" cy="37" r="1"></circle>
            <circle id="Oval-Copy-268" cx="1" cy="133" r="1"></circle>
            <circle id="Oval-Copy-134" cx="1" cy="85" r="1"></circle>
            <circle id="Oval-Copy-67" cx="193" cy="37" r="1"></circle>
            <circle id="Oval-Copy-270" cx="193" cy="133" r="1"></circle>
            <circle id="Oval-Copy-135" cx="193" cy="85" r="1"></circle>
            <circle id="Oval-Copy-8" cx="97" cy="1" r="1"></circle>
            <circle id="Oval-Copy-272" cx="97" cy="97" r="1"></circle>
            <circle id="Oval-Copy-136" cx="97" cy="49" r="1"></circle>
            <circle id="Oval-Copy-68" cx="289" cy="1" r="1"></circle>
            <circle id="Oval-Copy-274" cx="289" cy="97" r="1"></circle>
            <circle id="Oval-Copy-137" cx="289" cy="49" r="1"></circle>
            <circle id="Oval-Copy-34" cx="97" cy="25" r="1"></circle>
            <circle id="Oval-Copy-276" cx="97" cy="121" r="1"></circle>
            <circle id="Oval-Copy-138" cx="97" cy="73" r="1"></circle>
            <circle id="Oval-Copy-69" cx="289" cy="25" r="1"></circle>
            <circle id="Oval-Copy-278" cx="289" cy="121" r="1"></circle>
            <circle id="Oval-Copy-139" cx="289" cy="73" r="1"></circle>
            <circle id="Oval-Copy-17" cx="97" cy="13" r="1"></circle>
            <circle id="Oval-Copy-280" cx="97" cy="109" r="1"></circle>
            <circle id="Oval-Copy-140" cx="97" cy="61" r="1"></circle>
            <circle id="Oval-Copy-70" cx="289" cy="13" r="1"></circle>
            <circle id="Oval-Copy-282" cx="289" cy="109" r="1"></circle>
            <circle id="Oval-Copy-141" cx="289" cy="61" r="1"></circle>
            <circle id="Oval-Copy-35" cx="97" cy="37" r="1"></circle>
            <circle id="Oval-Copy-284" cx="97" cy="133" r="1"></circle>
            <circle id="Oval-Copy-142" cx="97" cy="85" r="1"></circle>
            <circle id="Oval-Copy-71" cx="289" cy="37" r="1"></circle>
            <circle id="Oval-Copy-286" cx="289" cy="133" r="1"></circle>
            <circle id="Oval-Copy-143" cx="289" cy="85" r="1"></circle>
            <circle id="Oval-Copy-4" cx="49" cy="1" r="1"></circle>
            <circle id="Oval-Copy-288" cx="49" cy="97" r="1"></circle>
            <circle id="Oval-Copy-144" cx="49" cy="49" r="1"></circle>
            <circle id="Oval-Copy-72" cx="241" cy="1" r="1"></circle>
            <circle id="Oval-Copy-290" cx="241" cy="97" r="1"></circle>
            <circle id="Oval-Copy-145" cx="241" cy="49" r="1"></circle>
            <circle id="Oval-Copy-36" cx="49" cy="25" r="1"></circle>
            <circle id="Oval-Copy-292" cx="49" cy="121" r="1"></circle>
            <circle id="Oval-Copy-146" cx="49" cy="73" r="1"></circle>
            <circle id="Oval-Copy-73" cx="241" cy="25" r="1"></circle>
            <circle id="Oval-Copy-294" cx="241" cy="121" r="1"></circle>
            <circle id="Oval-Copy-147" cx="241" cy="73" r="1"></circle>
            <circle id="Oval-Copy-18" cx="49" cy="13" r="1"></circle>
            <circle id="Oval-Copy-296" cx="49" cy="109" r="1"></circle>
            <circle id="Oval-Copy-148" cx="49" cy="61" r="1"></circle>
            <circle id="Oval-Copy-74" cx="241" cy="13" r="1"></circle>
            <circle id="Oval-Copy-298" cx="241" cy="109" r="1"></circle>
            <circle id="Oval-Copy-149" cx="241" cy="61" r="1"></circle>
            <circle id="Oval-Copy-37" cx="49" cy="37" r="1"></circle>
            <circle id="Oval-Copy-300" cx="49" cy="133" r="1"></circle>
            <circle id="Oval-Copy-150" cx="49" cy="85" r="1"></circle>
            <circle id="Oval-Copy-75" cx="241" cy="37" r="1"></circle>
            <circle id="Oval-Copy-302" cx="241" cy="133" r="1"></circle>
            <circle id="Oval-Copy-151" cx="241" cy="85" r="1"></circle>
            <circle id="Oval-Copy-9" cx="145" cy="1" r="1"></circle>
            <circle id="Oval-Copy-304" cx="145" cy="97" r="1"></circle>
            <circle id="Oval-Copy-152" cx="145" cy="49" r="1"></circle>
            <circle id="Oval-Copy-38" cx="145" cy="25" r="1"></circle>
            <circle id="Oval-Copy-308" cx="145" cy="121" r="1"></circle>
            <circle id="Oval-Copy-154" cx="145" cy="73" r="1"></circle>
            <circle id="Oval-Copy-19" cx="145" cy="13" r="1"></circle>
            <circle id="Oval-Copy-312" cx="145" cy="109" r="1"></circle>
            <circle id="Oval-Copy-156" cx="145" cy="61" r="1"></circle>
            <circle id="Oval-Copy-39" cx="145" cy="37" r="1"></circle>
            <circle id="Oval-Copy-316" cx="145" cy="133" r="1"></circle>
            <circle id="Oval-Copy-158" cx="145" cy="85" r="1"></circle>
            <circle id="Oval-Copy-2" cx="25" cy="1" r="1"></circle>
            <circle id="Oval-Copy-320" cx="25" cy="97" r="1"></circle>
            <circle id="Oval-Copy-160" cx="25" cy="49" r="1"></circle>
            <circle id="Oval-Copy-80" cx="217" cy="1" r="1"></circle>
            <circle id="Oval-Copy-322" cx="217" cy="97" r="1"></circle>
            <circle id="Oval-Copy-161" cx="217" cy="49" r="1"></circle>
            <circle id="Oval-Copy-40" cx="25" cy="25" r="1"></circle>
            <circle id="Oval-Copy-324" cx="25" cy="121" r="1"></circle>
            <circle id="Oval-Copy-162" cx="25" cy="73" r="1"></circle>
            <circle id="Oval-Copy-81" cx="217" cy="25" r="1"></circle>
            <circle id="Oval-Copy-326" cx="217" cy="121" r="1"></circle>
            <circle id="Oval-Copy-163" cx="217" cy="73" r="1"></circle>
            <circle id="Oval-Copy-20" cx="25" cy="13" r="1"></circle>
            <circle id="Oval-Copy-328" cx="25" cy="109" r="1"></circle>
            <circle id="Oval-Copy-164" cx="25" cy="61" r="1"></circle>
            <circle id="Oval-Copy-82" cx="217" cy="13" r="1"></circle>
            <circle id="Oval-Copy-330" cx="217" cy="109" r="1"></circle>
            <circle id="Oval-Copy-165" cx="217" cy="61" r="1"></circle>
            <circle id="Oval-Copy-41" cx="25" cy="37" r="1"></circle>
            <circle id="Oval-Copy-332" cx="25" cy="133" r="1"></circle>
            <circle id="Oval-Copy-166" cx="25" cy="85" r="1"></circle>
            <circle id="Oval-Copy-83" cx="217" cy="37" r="1"></circle>
            <circle id="Oval-Copy-334" cx="217" cy="133" r="1"></circle>
            <circle id="Oval-Copy-167" cx="217" cy="85" r="1"></circle>
            <circle id="Oval-Copy-10" cx="121" cy="1" r="1"></circle>
            <circle id="Oval-Copy-336" cx="121" cy="97" r="1"></circle>
            <circle id="Oval-Copy-168" cx="121" cy="49" r="1"></circle>
            <circle id="Oval-Copy-84" cx="313" cy="1" r="1"></circle>
            <circle id="Oval-Copy-338" cx="313" cy="97" r="1"></circle>
            <circle id="Oval-Copy-169" cx="313" cy="49" r="1"></circle>
            <circle id="Oval-Copy-42" cx="121" cy="25" r="1"></circle>
            <circle id="Oval-Copy-340" cx="121" cy="121" r="1"></circle>
            <circle id="Oval-Copy-170" cx="121" cy="73" r="1"></circle>
            <circle id="Oval-Copy-85" cx="313" cy="25" r="1"></circle>
            <circle id="Oval-Copy-342" cx="313" cy="121" r="1"></circle>
            <circle id="Oval-Copy-171" cx="313" cy="73" r="1"></circle>
            <circle id="Oval-Copy-21" cx="121" cy="13" r="1"></circle>
            <circle id="Oval-Copy-344" cx="121" cy="109" r="1"></circle>
            <circle id="Oval-Copy-172" cx="121" cy="61" r="1"></circle>
            <circle id="Oval-Copy-86" cx="313" cy="13" r="1"></circle>
            <circle id="Oval-Copy-346" cx="313" cy="109" r="1"></circle>
            <circle id="Oval-Copy-173" cx="313" cy="61" r="1"></circle>
            <circle id="Oval-Copy-43" cx="121" cy="37" r="1"></circle>
            <circle id="Oval-Copy-348" cx="121" cy="133" r="1"></circle>
            <circle id="Oval-Copy-174" cx="121" cy="85" r="1"></circle>
            <circle id="Oval-Copy-87" cx="313" cy="37" r="1"></circle>
            <circle id="Oval-Copy-350" cx="313" cy="133" r="1"></circle>
            <circle id="Oval-Copy-175" cx="313" cy="85" r="1"></circle>
            <circle id="Oval-Copy-5" cx="73" cy="1" r="1"></circle>
            <circle id="Oval-Copy-352" cx="73" cy="97" r="1"></circle>
            <circle id="Oval-Copy-176" cx="73" cy="49" r="1"></circle>
            <circle id="Oval-Copy-88" cx="265" cy="1" r="1"></circle>
            <circle id="Oval-Copy-354" cx="265" cy="97" r="1"></circle>
            <circle id="Oval-Copy-177" cx="265" cy="49" r="1"></circle>
            <circle id="Oval-Copy-44" cx="73" cy="25" r="1"></circle>
            <circle id="Oval-Copy-356" cx="73" cy="121" r="1"></circle>
            <circle id="Oval-Copy-178" cx="73" cy="73" r="1"></circle>
            <circle id="Oval-Copy-89" cx="265" cy="25" r="1"></circle>
            <circle id="Oval-Copy-358" cx="265" cy="121" r="1"></circle>
            <circle id="Oval-Copy-179" cx="265" cy="73" r="1"></circle>
            <circle id="Oval-Copy-22" cx="73" cy="13" r="1"></circle>
            <circle id="Oval-Copy-360" cx="73" cy="109" r="1"></circle>
            <circle id="Oval-Copy-180" cx="73" cy="61" r="1"></circle>
            <circle id="Oval-Copy-90" cx="265" cy="13" r="1"></circle>
            <circle id="Oval-Copy-362" cx="265" cy="109" r="1"></circle>
            <circle id="Oval-Copy-181" cx="265" cy="61" r="1"></circle>
            <circle id="Oval-Copy-45" cx="73" cy="37" r="1"></circle>
            <circle id="Oval-Copy-364" cx="73" cy="133" r="1"></circle>
            <circle id="Oval-Copy-182" cx="73" cy="85" r="1"></circle>
            <circle id="Oval-Copy-91" cx="265" cy="37" r="1"></circle>
            <circle id="Oval-Copy-366" cx="265" cy="133" r="1"></circle>
            <circle id="Oval-Copy-183" cx="265" cy="85" r="1"></circle>
            <circle id="Oval-Copy-11" cx="169" cy="1" r="1"></circle>
            <circle id="Oval-Copy-368" cx="169" cy="97" r="1"></circle>
            <circle id="Oval-Copy-184" cx="169" cy="49" r="1"></circle>
            <circle id="Oval-Copy-46" cx="169" cy="25" r="1"></circle>
            <circle id="Oval-Copy-372" cx="169" cy="121" r="1"></circle>
            <circle id="Oval-Copy-186" cx="169" cy="73" r="1"></circle>
            <circle id="Oval-Copy-23" cx="169" cy="13" r="1"></circle>
            <circle id="Oval-Copy-376" cx="169" cy="109" r="1"></circle>
            <circle id="Oval-Copy-188" cx="169" cy="61" r="1"></circle>
            <circle id="Oval-Copy-47" cx="169" cy="37" r="1"></circle>
            <circle id="Oval-Copy-380" cx="169" cy="133" r="1"></circle>
            <circle id="Oval-Copy-190" cx="169" cy="85" r="1"></circle>
            <circle id="Oval-Copy" cx="13" cy="1" r="1"></circle>
            <circle id="Oval-Copy-384" cx="13" cy="97" r="1"></circle>
            <circle id="Oval-Copy-192" cx="13" cy="49" r="1"></circle>
            <circle id="Oval-Copy-96" cx="205" cy="1" r="1"></circle>
            <circle id="Oval-Copy-386" cx="205" cy="97" r="1"></circle>
            <circle id="Oval-Copy-193" cx="205" cy="49" r="1"></circle>
            <circle id="Oval-Copy-48" cx="13" cy="25" r="1"></circle>
            <circle id="Oval-Copy-388" cx="13" cy="121" r="1"></circle>
            <circle id="Oval-Copy-194" cx="13" cy="73" r="1"></circle>
            <circle id="Oval-Copy-97" cx="205" cy="25" r="1"></circle>
            <circle id="Oval-Copy-390" cx="205" cy="121" r="1"></circle>
            <circle id="Oval-Copy-195" cx="205" cy="73" r="1"></circle>
            <circle id="Oval-Copy-24" cx="13" cy="13" r="1"></circle>
            <circle id="Oval-Copy-392" cx="13" cy="109" r="1"></circle>
            <circle id="Oval-Copy-196" cx="13" cy="61" r="1"></circle>
            <circle id="Oval-Copy-98" cx="205" cy="13" r="1"></circle>
            <circle id="Oval-Copy-394" cx="205" cy="109" r="1"></circle>
            <circle id="Oval-Copy-197" cx="205" cy="61" r="1"></circle>
            <circle id="Oval-Copy-49" cx="13" cy="37" r="1"></circle>
            <circle id="Oval-Copy-396" cx="13" cy="133" r="1"></circle>
            <circle id="Oval-Copy-198" cx="13" cy="85" r="1"></circle>
            <circle id="Oval-Copy-99" cx="205" cy="37" r="1"></circle>
            <circle id="Oval-Copy-398" cx="205" cy="133" r="1"></circle>
            <circle id="Oval-Copy-199" cx="205" cy="85" r="1"></circle>
            <circle id="Oval-Copy-12" cx="109" cy="1" r="1"></circle>
            <circle id="Oval-Copy-400" cx="109" cy="97" r="1"></circle>
            <circle id="Oval-Copy-200" cx="109" cy="49" r="1"></circle>
            <circle id="Oval-Copy-100" cx="301" cy="1" r="1"></circle>
            <circle id="Oval-Copy-402" cx="301" cy="97" r="1"></circle>
            <circle id="Oval-Copy-201" cx="301" cy="49" r="1"></circle>
            <circle id="Oval-Copy-50" cx="109" cy="25" r="1"></circle>
            <circle id="Oval-Copy-404" cx="109" cy="121" r="1"></circle>
            <circle id="Oval-Copy-202" cx="109" cy="73" r="1"></circle>
            <circle id="Oval-Copy-101" cx="301" cy="25" r="1"></circle>
            <circle id="Oval-Copy-406" cx="301" cy="121" r="1"></circle>
            <circle id="Oval-Copy-203" cx="301" cy="73" r="1"></circle>
            <circle id="Oval-Copy-25" cx="109" cy="13" r="1"></circle>
            <circle id="Oval-Copy-408" cx="109" cy="109" r="1"></circle>
            <circle id="Oval-Copy-204" cx="109" cy="61" r="1"></circle>
            <circle id="Oval-Copy-102" cx="301" cy="13" r="1"></circle>
            <circle id="Oval-Copy-410" cx="301" cy="109" r="1"></circle>
            <circle id="Oval-Copy-205" cx="301" cy="61" r="1"></circle>
            <circle id="Oval-Copy-51" cx="109" cy="37" r="1"></circle>
            <circle id="Oval-Copy-412" cx="109" cy="133" r="1"></circle>
            <circle id="Oval-Copy-206" cx="109" cy="85" r="1"></circle>
            <circle id="Oval-Copy-103" cx="301" cy="37" r="1"></circle>
            <circle id="Oval-Copy-414" cx="301" cy="133" r="1"></circle>
            <circle id="Oval-Copy-207" cx="301" cy="85" r="1"></circle>
            <circle id="Oval-Copy-6" cx="61" cy="1" r="1"></circle>
            <circle id="Oval-Copy-416" cx="61" cy="97" r="1"></circle>
            <circle id="Oval-Copy-208" cx="61" cy="49" r="1"></circle>
            <circle id="Oval-Copy-104" cx="253" cy="1" r="1"></circle>
            <circle id="Oval-Copy-418" cx="253" cy="97" r="1"></circle>
            <circle id="Oval-Copy-209" cx="253" cy="49" r="1"></circle>
            <circle id="Oval-Copy-52" cx="61" cy="25" r="1"></circle>
            <circle id="Oval-Copy-420" cx="61" cy="121" r="1"></circle>
            <circle id="Oval-Copy-210" cx="61" cy="73" r="1"></circle>
            <circle id="Oval-Copy-105" cx="253" cy="25" r="1"></circle>
            <circle id="Oval-Copy-422" cx="253" cy="121" r="1"></circle>
            <circle id="Oval-Copy-211" cx="253" cy="73" r="1"></circle>
            <circle id="Oval-Copy-26" cx="61" cy="13" r="1"></circle>
            <circle id="Oval-Copy-424" cx="61" cy="109" r="1"></circle>
            <circle id="Oval-Copy-212" cx="61" cy="61" r="1"></circle>
            <circle id="Oval-Copy-106" cx="253" cy="13" r="1"></circle>
            <circle id="Oval-Copy-426" cx="253" cy="109" r="1"></circle>
            <circle id="Oval-Copy-213" cx="253" cy="61" r="1"></circle>
            <circle id="Oval-Copy-53" cx="61" cy="37" r="1"></circle>
            <circle id="Oval-Copy-428" cx="61" cy="133" r="1"></circle>
            <circle id="Oval-Copy-214" cx="61" cy="85" r="1"></circle>
            <circle id="Oval-Copy-107" cx="253" cy="37" r="1"></circle>
            <circle id="Oval-Copy-430" cx="253" cy="133" r="1"></circle>
            <circle id="Oval-Copy-215" cx="253" cy="85" r="1"></circle>
            <circle id="Oval-Copy-13" cx="157" cy="1" r="1"></circle>
            <circle id="Oval-Copy-432" cx="157" cy="97" r="1"></circle>
            <circle id="Oval-Copy-216" cx="157" cy="49" r="1"></circle>
            <circle id="Oval-Copy-54" cx="157" cy="25" r="1"></circle>
            <circle id="Oval-Copy-436" cx="157" cy="121" r="1"></circle>
            <circle id="Oval-Copy-218" cx="157" cy="73" r="1"></circle>
            <circle id="Oval-Copy-27" cx="157" cy="13" r="1"></circle>
            <circle id="Oval-Copy-440" cx="157" cy="109" r="1"></circle>
            <circle id="Oval-Copy-220" cx="157" cy="61" r="1"></circle>
            <circle id="Oval-Copy-55" cx="157" cy="37" r="1"></circle>
            <circle id="Oval-Copy-444" cx="157" cy="133" r="1"></circle>
            <circle id="Oval-Copy-222" cx="157" cy="85" r="1"></circle>
            <circle id="Oval-Copy-3" cx="37" cy="1" r="1"></circle>
            <circle id="Oval-Copy-448" cx="37" cy="97" r="1"></circle>
            <circle id="Oval-Copy-224" cx="37" cy="49" r="1"></circle>
            <circle id="Oval-Copy-112" cx="229" cy="1" r="1"></circle>
            <circle id="Oval-Copy-450" cx="229" cy="97" r="1"></circle>
            <circle id="Oval-Copy-225" cx="229" cy="49" r="1"></circle>
            <circle id="Oval-Copy-56" cx="37" cy="25" r="1"></circle>
            <circle id="Oval-Copy-452" cx="37" cy="121" r="1"></circle>
            <circle id="Oval-Copy-226" cx="37" cy="73" r="1"></circle>
            <circle id="Oval-Copy-113" cx="229" cy="25" r="1"></circle>
            <circle id="Oval-Copy-454" cx="229" cy="121" r="1"></circle>
            <circle id="Oval-Copy-227" cx="229" cy="73" r="1"></circle>
            <circle id="Oval-Copy-28" cx="37" cy="13" r="1"></circle>
            <circle id="Oval-Copy-456" cx="37" cy="109" r="1"></circle>
            <circle id="Oval-Copy-228" cx="37" cy="61" r="1"></circle>
            <circle id="Oval-Copy-114" cx="229" cy="13" r="1"></circle>
            <circle id="Oval-Copy-458" cx="229" cy="109" r="1"></circle>
            <circle id="Oval-Copy-229" cx="229" cy="61" r="1"></circle>
            <circle id="Oval-Copy-57" cx="37" cy="37" r="1"></circle>
            <circle id="Oval-Copy-460" cx="37" cy="133" r="1"></circle>
            <circle id="Oval-Copy-230" cx="37" cy="85" r="1"></circle>
            <circle id="Oval-Copy-115" cx="229" cy="37" r="1"></circle>
            <circle id="Oval-Copy-462" cx="229" cy="133" r="1"></circle>
            <circle id="Oval-Copy-231" cx="229" cy="85" r="1"></circle>
            <circle id="Oval-Copy-14" cx="133" cy="1" r="1"></circle>
            <circle id="Oval-Copy-464" cx="133" cy="97" r="1"></circle>
            <circle id="Oval-Copy-232" cx="133" cy="49" r="1"></circle>
            <circle id="Oval-Copy-58" cx="133" cy="25" r="1"></circle>
            <circle id="Oval-Copy-468" cx="133" cy="121" r="1"></circle>
            <circle id="Oval-Copy-234" cx="133" cy="73" r="1"></circle>
            <circle id="Oval-Copy-29" cx="133" cy="13" r="1"></circle>
            <circle id="Oval-Copy-472" cx="133" cy="109" r="1"></circle>
            <circle id="Oval-Copy-236" cx="133" cy="61" r="1"></circle>
            <circle id="Oval-Copy-59" cx="133" cy="37" r="1"></circle>
            <circle id="Oval-Copy-476" cx="133" cy="133" r="1"></circle>
            <circle id="Oval-Copy-238" cx="133" cy="85" r="1"></circle>
            <circle id="Oval-Copy-7" cx="85" cy="1" r="1"></circle>
            <circle id="Oval-Copy-480" cx="85" cy="97" r="1"></circle>
            <circle id="Oval-Copy-240" cx="85" cy="49" r="1"></circle>
            <circle id="Oval-Copy-120" cx="277" cy="1" r="1"></circle>
            <circle id="Oval-Copy-482" cx="277" cy="97" r="1"></circle>
            <circle id="Oval-Copy-241" cx="277" cy="49" r="1"></circle>
            <circle id="Oval-Copy-60" cx="85" cy="25" r="1"></circle>
            <circle id="Oval-Copy-484" cx="85" cy="121" r="1"></circle>
            <circle id="Oval-Copy-242" cx="85" cy="73" r="1"></circle>
            <circle id="Oval-Copy-121" cx="277" cy="25" r="1"></circle>
            <circle id="Oval-Copy-486" cx="277" cy="121" r="1"></circle>
            <circle id="Oval-Copy-243" cx="277" cy="73" r="1"></circle>
            <circle id="Oval-Copy-30" cx="85" cy="13" r="1"></circle>
            <circle id="Oval-Copy-488" cx="85" cy="109" r="1"></circle>
            <circle id="Oval-Copy-244" cx="85" cy="61" r="1"></circle>
            <circle id="Oval-Copy-122" cx="277" cy="13" r="1"></circle>
            <circle id="Oval-Copy-490" cx="277" cy="109" r="1"></circle>
            <circle id="Oval-Copy-245" cx="277" cy="61" r="1"></circle>
            <circle id="Oval-Copy-61" cx="85" cy="37" r="1"></circle>
            <circle id="Oval-Copy-492" cx="85" cy="133" r="1"></circle>
            <circle id="Oval-Copy-246" cx="85" cy="85" r="1"></circle>
            <circle id="Oval-Copy-123" cx="277" cy="37" r="1"></circle>
            <circle id="Oval-Copy-494" cx="277" cy="133" r="1"></circle>
            <circle id="Oval-Copy-247" cx="277" cy="85" r="1"></circle>
            <circle id="Oval-Copy-15" cx="181" cy="1" r="1"></circle>
            <circle id="Oval-Copy-496" cx="181" cy="97" r="1"></circle>
            <circle id="Oval-Copy-248" cx="181" cy="49" r="1"></circle>
            <circle id="Oval-Copy-62" cx="181" cy="25" r="1"></circle>
            <circle id="Oval-Copy-500" cx="181" cy="121" r="1"></circle>
            <circle id="Oval-Copy-250" cx="181" cy="73" r="1"></circle>
            <circle id="Oval-Copy-31" cx="181" cy="13" r="1"></circle>
            <circle id="Oval-Copy-504" cx="181" cy="109" r="1"></circle>
            <circle id="Oval-Copy-252" cx="181" cy="61" r="1"></circle>
            <circle id="Oval-Copy-63" cx="181" cy="37" r="1"></circle>
            <circle id="Oval-Copy-508" cx="181" cy="133" r="1"></circle>
            <circle id="Oval-Copy-254" cx="181" cy="85" r="1"></circle>
        </g>
    </g>
</svg>