<?xml version="1.0" encoding="UTF-8"?>
<svg width="768px" height="1024px" viewBox="0 0 768 1024" version="1.1" xmlns="http://www.w3.org/2000/svg" xmlns:xlink="http://www.w3.org/1999/xlink">
    <!-- Generator: Sketch 62 (91390) - https://sketch.com -->
    <title>Home_Tab</title>
    <desc>Created with Sketch.</desc>
    <g id="Home_Tab" stroke="none" stroke-width="1" fill="none" fill-rule="evenodd">
        <g id="Group-2-Copy-5" transform="translate(-80.000000, 852.000000)" fill="#8E7F79">
            <circle id="Oval-Copy-64" cx="193" cy="1" r="1"></circle>
            <circle id="Oval-Copy-258" cx="193" cy="97" r="1"></circle>
            <circle id="Oval-Copy-129" cx="193" cy="49" r="1"></circle>
            <circle id="Oval-Copy-259" cx="193" cy="145" r="1"></circle>
            <circle id="Oval-Copy-65" cx="193" cy="25" r="1"></circle>
            <circle id="Oval-Copy-262" cx="193" cy="121" r="1"></circle>
            <circle id="Oval-Copy-131" cx="193" cy="73" r="1"></circle>
            <circle id="Oval-Copy-263" cx="193" cy="169" r="1"></circle>
            <circle id="Oval-Copy-66" cx="193" cy="13" r="1"></circle>
            <circle id="Oval-Copy-266" cx="193" cy="109" r="1"></circle>
            <circle id="Oval-Copy-133" cx="193" cy="61" r="1"></circle>
            <circle id="Oval-Copy-267" cx="193" cy="157" r="1"></circle>
            <circle id="Oval-Copy-67" cx="193" cy="37" r="1"></circle>
            <circle id="Oval-Copy-270" cx="193" cy="133" r="1"></circle>
            <circle id="Oval-Copy-135" cx="193" cy="85" r="1"></circle>
            <circle id="Oval-Copy-8" cx="97" cy="1" r="1"></circle>
            <circle id="Oval-Copy-272" cx="97" cy="97" r="1"></circle>
            <circle id="Oval-Copy-136" cx="97" cy="49" r="1"></circle>
            <circle id="Oval-Copy-273" cx="97" cy="145" r="1"></circle>
            <circle id="Oval-Copy-68" cx="289" cy="1" r="1"></circle>
            <circle id="Oval-Copy-274" cx="289" cy="97" r="1"></circle>
            <circle id="Oval-Copy-137" cx="289" cy="49" r="1"></circle>
            <circle id="Oval-Copy-275" cx="289" cy="145" r="1"></circle>
            <circle id="Oval-Copy-34" cx="97" cy="25" r="1"></circle>
            <circle id="Oval-Copy-276" cx="97" cy="121" r="1"></circle>
            <circle id="Oval-Copy-138" cx="97" cy="73" r="1"></circle>
            <circle id="Oval-Copy-277" cx="97" cy="169" r="1"></circle>
            <circle id="Oval-Copy-69" cx="289" cy="25" r="1"></circle>
            <circle id="Oval-Copy-278" cx="289" cy="121" r="1"></circle>
            <circle id="Oval-Copy-139" cx="289" cy="73" r="1"></circle>
            <circle id="Oval-Copy-279" cx="289" cy="169" r="1"></circle>
            <circle id="Oval-Copy-17" cx="97" cy="13" r="1"></circle>
            <circle id="Oval-Copy-280" cx="97" cy="109" r="1"></circle>
            <circle id="Oval-Copy-140" cx="97" cy="61" r="1"></circle>
            <circle id="Oval-Copy-281" cx="97" cy="157" r="1"></circle>
            <circle id="Oval-Copy-70" cx="289" cy="13" r="1"></circle>
            <circle id="Oval-Copy-282" cx="289" cy="109" r="1"></circle>
            <circle id="Oval-Copy-141" cx="289" cy="61" r="1"></circle>
            <circle id="Oval-Copy-283" cx="289" cy="157" r="1"></circle>
            <circle id="Oval-Copy-35" cx="97" cy="37" r="1"></circle>
            <circle id="Oval-Copy-284" cx="97" cy="133" r="1"></circle>
            <circle id="Oval-Copy-142" cx="97" cy="85" r="1"></circle>
            <circle id="Oval-Copy-71" cx="289" cy="37" r="1"></circle>
            <circle id="Oval-Copy-286" cx="289" cy="133" r="1"></circle>
            <circle id="Oval-Copy-143" cx="289" cy="85" r="1"></circle>
            <circle id="Oval-Copy-72" cx="241" cy="1" r="1"></circle>
            <circle id="Oval-Copy-290" cx="241" cy="97" r="1"></circle>
            <circle id="Oval-Copy-145" cx="241" cy="49" r="1"></circle>
            <circle id="Oval-Copy-291" cx="241" cy="145" r="1"></circle>
            <circle id="Oval-Copy-73" cx="241" cy="25" r="1"></circle>
            <circle id="Oval-Copy-294" cx="241" cy="121" r="1"></circle>
            <circle id="Oval-Copy-147" cx="241" cy="73" r="1"></circle>
            <circle id="Oval-Copy-295" cx="241" cy="169" r="1"></circle>
            <circle id="Oval-Copy-74" cx="241" cy="13" r="1"></circle>
            <circle id="Oval-Copy-298" cx="241" cy="109" r="1"></circle>
            <circle id="Oval-Copy-149" cx="241" cy="61" r="1"></circle>
            <circle id="Oval-Copy-299" cx="241" cy="157" r="1"></circle>
            <circle id="Oval-Copy-75" cx="241" cy="37" r="1"></circle>
            <circle id="Oval-Copy-302" cx="241" cy="133" r="1"></circle>
            <circle id="Oval-Copy-151" cx="241" cy="85" r="1"></circle>
            <circle id="Oval-Copy-9" cx="145" cy="1" r="1"></circle>
            <circle id="Oval-Copy-304" cx="145" cy="97" r="1"></circle>
            <circle id="Oval-Copy-152" cx="145" cy="49" r="1"></circle>
            <circle id="Oval-Copy-305" cx="145" cy="145" r="1"></circle>
            <circle id="Oval-Copy-76" cx="337" cy="1" r="1"></circle>
            <circle id="Oval-Copy-306" cx="337" cy="97" r="1"></circle>
            <circle id="Oval-Copy-153" cx="337" cy="49" r="1"></circle>
            <circle id="Oval-Copy-307" cx="337" cy="145" r="1"></circle>
            <circle id="Oval-Copy-38" cx="145" cy="25" r="1"></circle>
            <circle id="Oval-Copy-308" cx="145" cy="121" r="1"></circle>
            <circle id="Oval-Copy-154" cx="145" cy="73" r="1"></circle>
            <circle id="Oval-Copy-309" cx="145" cy="169" r="1"></circle>
            <circle id="Oval-Copy-77" cx="337" cy="25" r="1"></circle>
            <circle id="Oval-Copy-310" cx="337" cy="121" r="1"></circle>
            <circle id="Oval-Copy-155" cx="337" cy="73" r="1"></circle>
            <circle id="Oval-Copy-311" cx="337" cy="169" r="1"></circle>
            <circle id="Oval-Copy-19" cx="145" cy="13" r="1"></circle>
            <circle id="Oval-Copy-312" cx="145" cy="109" r="1"></circle>
            <circle id="Oval-Copy-156" cx="145" cy="61" r="1"></circle>
            <circle id="Oval-Copy-313" cx="145" cy="157" r="1"></circle>
            <circle id="Oval-Copy-78" cx="337" cy="13" r="1"></circle>
            <circle id="Oval-Copy-314" cx="337" cy="109" r="1"></circle>
            <circle id="Oval-Copy-157" cx="337" cy="61" r="1"></circle>
            <circle id="Oval-Copy-315" cx="337" cy="157" r="1"></circle>
            <circle id="Oval-Copy-39" cx="145" cy="37" r="1"></circle>
            <circle id="Oval-Copy-316" cx="145" cy="133" r="1"></circle>
            <circle id="Oval-Copy-158" cx="145" cy="85" r="1"></circle>
            <circle id="Oval-Copy-79" cx="337" cy="37" r="1"></circle>
            <circle id="Oval-Copy-318" cx="337" cy="133" r="1"></circle>
            <circle id="Oval-Copy-159" cx="337" cy="85" r="1"></circle>
            <circle id="Oval-Copy-80" cx="217" cy="1" r="1"></circle>
            <circle id="Oval-Copy-322" cx="217" cy="97" r="1"></circle>
            <circle id="Oval-Copy-161" cx="217" cy="49" r="1"></circle>
            <circle id="Oval-Copy-323" cx="217" cy="145" r="1"></circle>
            <circle id="Oval-Copy-81" cx="217" cy="25" r="1"></circle>
            <circle id="Oval-Copy-326" cx="217" cy="121" r="1"></circle>
            <circle id="Oval-Copy-163" cx="217" cy="73" r="1"></circle>
            <circle id="Oval-Copy-327" cx="217" cy="169" r="1"></circle>
            <circle id="Oval-Copy-82" cx="217" cy="13" r="1"></circle>
            <circle id="Oval-Copy-330" cx="217" cy="109" r="1"></circle>
            <circle id="Oval-Copy-165" cx="217" cy="61" r="1"></circle>
            <circle id="Oval-Copy-331" cx="217" cy="157" r="1"></circle>
            <circle id="Oval-Copy-83" cx="217" cy="37" r="1"></circle>
            <circle id="Oval-Copy-334" cx="217" cy="133" r="1"></circle>
            <circle id="Oval-Copy-167" cx="217" cy="85" r="1"></circle>
            <circle id="Oval-Copy-10" cx="121" cy="1" r="1"></circle>
            <circle id="Oval-Copy-336" cx="121" cy="97" r="1"></circle>
            <circle id="Oval-Copy-168" cx="121" cy="49" r="1"></circle>
            <circle id="Oval-Copy-337" cx="121" cy="145" r="1"></circle>
            <circle id="Oval-Copy-84" cx="313" cy="1" r="1"></circle>
            <circle id="Oval-Copy-338" cx="313" cy="97" r="1"></circle>
            <circle id="Oval-Copy-169" cx="313" cy="49" r="1"></circle>
            <circle id="Oval-Copy-339" cx="313" cy="145" r="1"></circle>
            <circle id="Oval-Copy-42" cx="121" cy="25" r="1"></circle>
            <circle id="Oval-Copy-340" cx="121" cy="121" r="1"></circle>
            <circle id="Oval-Copy-170" cx="121" cy="73" r="1"></circle>
            <circle id="Oval-Copy-341" cx="121" cy="169" r="1"></circle>
            <circle id="Oval-Copy-85" cx="313" cy="25" r="1"></circle>
            <circle id="Oval-Copy-342" cx="313" cy="121" r="1"></circle>
            <circle id="Oval-Copy-171" cx="313" cy="73" r="1"></circle>
            <circle id="Oval-Copy-343" cx="313" cy="169" r="1"></circle>
            <circle id="Oval-Copy-21" cx="121" cy="13" r="1"></circle>
            <circle id="Oval-Copy-344" cx="121" cy="109" r="1"></circle>
            <circle id="Oval-Copy-172" cx="121" cy="61" r="1"></circle>
            <circle id="Oval-Copy-345" cx="121" cy="157" r="1"></circle>
            <circle id="Oval-Copy-86" cx="313" cy="13" r="1"></circle>
            <circle id="Oval-Copy-346" cx="313" cy="109" r="1"></circle>
            <circle id="Oval-Copy-173" cx="313" cy="61" r="1"></circle>
            <circle id="Oval-Copy-347" cx="313" cy="157" r="1"></circle>
            <circle id="Oval-Copy-43" cx="121" cy="37" r="1"></circle>
            <circle id="Oval-Copy-348" cx="121" cy="133" r="1"></circle>
            <circle id="Oval-Copy-174" cx="121" cy="85" r="1"></circle>
            <circle id="Oval-Copy-87" cx="313" cy="37" r="1"></circle>
            <circle id="Oval-Copy-350" cx="313" cy="133" r="1"></circle>
            <circle id="Oval-Copy-175" cx="313" cy="85" r="1"></circle>
            <circle id="Oval-Copy-88" cx="265" cy="1" r="1"></circle>
            <circle id="Oval-Copy-354" cx="265" cy="97" r="1"></circle>
            <circle id="Oval-Copy-177" cx="265" cy="49" r="1"></circle>
            <circle id="Oval-Copy-355" cx="265" cy="145" r="1"></circle>
            <circle id="Oval-Copy-89" cx="265" cy="25" r="1"></circle>
            <circle id="Oval-Copy-358" cx="265" cy="121" r="1"></circle>
            <circle id="Oval-Copy-179" cx="265" cy="73" r="1"></circle>
            <circle id="Oval-Copy-359" cx="265" cy="169" r="1"></circle>
            <circle id="Oval-Copy-90" cx="265" cy="13" r="1"></circle>
            <circle id="Oval-Copy-362" cx="265" cy="109" r="1"></circle>
            <circle id="Oval-Copy-181" cx="265" cy="61" r="1"></circle>
            <circle id="Oval-Copy-363" cx="265" cy="157" r="1"></circle>
            <circle id="Oval-Copy-91" cx="265" cy="37" r="1"></circle>
            <circle id="Oval-Copy-366" cx="265" cy="133" r="1"></circle>
            <circle id="Oval-Copy-183" cx="265" cy="85" r="1"></circle>
            <circle id="Oval-Copy-11" cx="169" cy="1" r="1"></circle>
            <circle id="Oval-Copy-368" cx="169" cy="97" r="1"></circle>
            <circle id="Oval-Copy-184" cx="169" cy="49" r="1"></circle>
            <circle id="Oval-Copy-369" cx="169" cy="145" r="1"></circle>
            <circle id="Oval-Copy-92" cx="361" cy="1" r="1"></circle>
            <circle id="Oval-Copy-370" cx="361" cy="97" r="1"></circle>
            <circle id="Oval-Copy-185" cx="361" cy="49" r="1"></circle>
            <circle id="Oval-Copy-371" cx="361" cy="145" r="1"></circle>
            <circle id="Oval-Copy-46" cx="169" cy="25" r="1"></circle>
            <circle id="Oval-Copy-372" cx="169" cy="121" r="1"></circle>
            <circle id="Oval-Copy-186" cx="169" cy="73" r="1"></circle>
            <circle id="Oval-Copy-373" cx="169" cy="169" r="1"></circle>
            <circle id="Oval-Copy-93" cx="361" cy="25" r="1"></circle>
            <circle id="Oval-Copy-374" cx="361" cy="121" r="1"></circle>
            <circle id="Oval-Copy-187" cx="361" cy="73" r="1"></circle>
            <circle id="Oval-Copy-375" cx="361" cy="169" r="1"></circle>
            <circle id="Oval-Copy-23" cx="169" cy="13" r="1"></circle>
            <circle id="Oval-Copy-376" cx="169" cy="109" r="1"></circle>
            <circle id="Oval-Copy-188" cx="169" cy="61" r="1"></circle>
            <circle id="Oval-Copy-377" cx="169" cy="157" r="1"></circle>
            <circle id="Oval-Copy-94" cx="361" cy="13" r="1"></circle>
            <circle id="Oval-Copy-378" cx="361" cy="109" r="1"></circle>
            <circle id="Oval-Copy-189" cx="361" cy="61" r="1"></circle>
            <circle id="Oval-Copy-379" cx="361" cy="157" r="1"></circle>
            <circle id="Oval-Copy-47" cx="169" cy="37" r="1"></circle>
            <circle id="Oval-Copy-380" cx="169" cy="133" r="1"></circle>
            <circle id="Oval-Copy-190" cx="169" cy="85" r="1"></circle>
            <circle id="Oval-Copy-95" cx="361" cy="37" r="1"></circle>
            <circle id="Oval-Copy-382" cx="361" cy="133" r="1"></circle>
            <circle id="Oval-Copy-191" cx="361" cy="85" r="1"></circle>
            <circle id="Oval-Copy-96" cx="205" cy="1" r="1"></circle>
            <circle id="Oval-Copy-386" cx="205" cy="97" r="1"></circle>
            <circle id="Oval-Copy-193" cx="205" cy="49" r="1"></circle>
            <circle id="Oval-Copy-387" cx="205" cy="145" r="1"></circle>
            <circle id="Oval-Copy-97" cx="205" cy="25" r="1"></circle>
            <circle id="Oval-Copy-390" cx="205" cy="121" r="1"></circle>
            <circle id="Oval-Copy-195" cx="205" cy="73" r="1"></circle>
            <circle id="Oval-Copy-391" cx="205" cy="169" r="1"></circle>
            <circle id="Oval-Copy-98" cx="205" cy="13" r="1"></circle>
            <circle id="Oval-Copy-394" cx="205" cy="109" r="1"></circle>
            <circle id="Oval-Copy-197" cx="205" cy="61" r="1"></circle>
            <circle id="Oval-Copy-395" cx="205" cy="157" r="1"></circle>
            <circle id="Oval-Copy-99" cx="205" cy="37" r="1"></circle>
            <circle id="Oval-Copy-398" cx="205" cy="133" r="1"></circle>
            <circle id="Oval-Copy-199" cx="205" cy="85" r="1"></circle>
            <circle id="Oval-Copy-12" cx="109" cy="1" r="1"></circle>
            <circle id="Oval-Copy-400" cx="109" cy="97" r="1"></circle>
            <circle id="Oval-Copy-200" cx="109" cy="49" r="1"></circle>
            <circle id="Oval-Copy-401" cx="109" cy="145" r="1"></circle>
            <circle id="Oval-Copy-100" cx="301" cy="1" r="1"></circle>
            <circle id="Oval-Copy-402" cx="301" cy="97" r="1"></circle>
            <circle id="Oval-Copy-201" cx="301" cy="49" r="1"></circle>
            <circle id="Oval-Copy-403" cx="301" cy="145" r="1"></circle>
            <circle id="Oval-Copy-50" cx="109" cy="25" r="1"></circle>
            <circle id="Oval-Copy-404" cx="109" cy="121" r="1"></circle>
            <circle id="Oval-Copy-202" cx="109" cy="73" r="1"></circle>
            <circle id="Oval-Copy-405" cx="109" cy="169" r="1"></circle>
            <circle id="Oval-Copy-101" cx="301" cy="25" r="1"></circle>
            <circle id="Oval-Copy-406" cx="301" cy="121" r="1"></circle>
            <circle id="Oval-Copy-203" cx="301" cy="73" r="1"></circle>
            <circle id="Oval-Copy-407" cx="301" cy="169" r="1"></circle>
            <circle id="Oval-Copy-25" cx="109" cy="13" r="1"></circle>
            <circle id="Oval-Copy-408" cx="109" cy="109" r="1"></circle>
            <circle id="Oval-Copy-204" cx="109" cy="61" r="1"></circle>
            <circle id="Oval-Copy-409" cx="109" cy="157" r="1"></circle>
            <circle id="Oval-Copy-102" cx="301" cy="13" r="1"></circle>
            <circle id="Oval-Copy-410" cx="301" cy="109" r="1"></circle>
            <circle id="Oval-Copy-205" cx="301" cy="61" r="1"></circle>
            <circle id="Oval-Copy-411" cx="301" cy="157" r="1"></circle>
            <circle id="Oval-Copy-51" cx="109" cy="37" r="1"></circle>
            <circle id="Oval-Copy-412" cx="109" cy="133" r="1"></circle>
            <circle id="Oval-Copy-206" cx="109" cy="85" r="1"></circle>
            <circle id="Oval-Copy-103" cx="301" cy="37" r="1"></circle>
            <circle id="Oval-Copy-414" cx="301" cy="133" r="1"></circle>
            <circle id="Oval-Copy-207" cx="301" cy="85" r="1"></circle>
            <circle id="Oval-Copy-104" cx="253" cy="1" r="1"></circle>
            <circle id="Oval-Copy-418" cx="253" cy="97" r="1"></circle>
            <circle id="Oval-Copy-209" cx="253" cy="49" r="1"></circle>
            <circle id="Oval-Copy-419" cx="253" cy="145" r="1"></circle>
            <circle id="Oval-Copy-105" cx="253" cy="25" r="1"></circle>
            <circle id="Oval-Copy-422" cx="253" cy="121" r="1"></circle>
            <circle id="Oval-Copy-211" cx="253" cy="73" r="1"></circle>
            <circle id="Oval-Copy-423" cx="253" cy="169" r="1"></circle>
            <circle id="Oval-Copy-106" cx="253" cy="13" r="1"></circle>
            <circle id="Oval-Copy-426" cx="253" cy="109" r="1"></circle>
            <circle id="Oval-Copy-213" cx="253" cy="61" r="1"></circle>
            <circle id="Oval-Copy-427" cx="253" cy="157" r="1"></circle>
            <circle id="Oval-Copy-107" cx="253" cy="37" r="1"></circle>
            <circle id="Oval-Copy-430" cx="253" cy="133" r="1"></circle>
            <circle id="Oval-Copy-215" cx="253" cy="85" r="1"></circle>
            <circle id="Oval-Copy-13" cx="157" cy="1" r="1"></circle>
            <circle id="Oval-Copy-432" cx="157" cy="97" r="1"></circle>
            <circle id="Oval-Copy-216" cx="157" cy="49" r="1"></circle>
            <circle id="Oval-Copy-433" cx="157" cy="145" r="1"></circle>
            <circle id="Oval-Copy-108" cx="349" cy="1" r="1"></circle>
            <circle id="Oval-Copy-434" cx="349" cy="97" r="1"></circle>
            <circle id="Oval-Copy-217" cx="349" cy="49" r="1"></circle>
            <circle id="Oval-Copy-435" cx="349" cy="145" r="1"></circle>
            <circle id="Oval-Copy-54" cx="157" cy="25" r="1"></circle>
            <circle id="Oval-Copy-436" cx="157" cy="121" r="1"></circle>
            <circle id="Oval-Copy-218" cx="157" cy="73" r="1"></circle>
            <circle id="Oval-Copy-437" cx="157" cy="169" r="1"></circle>
            <circle id="Oval-Copy-109" cx="349" cy="25" r="1"></circle>
            <circle id="Oval-Copy-438" cx="349" cy="121" r="1"></circle>
            <circle id="Oval-Copy-219" cx="349" cy="73" r="1"></circle>
            <circle id="Oval-Copy-439" cx="349" cy="169" r="1"></circle>
            <circle id="Oval-Copy-27" cx="157" cy="13" r="1"></circle>
            <circle id="Oval-Copy-440" cx="157" cy="109" r="1"></circle>
            <circle id="Oval-Copy-220" cx="157" cy="61" r="1"></circle>
            <circle id="Oval-Copy-441" cx="157" cy="157" r="1"></circle>
            <circle id="Oval-Copy-110" cx="349" cy="13" r="1"></circle>
            <circle id="Oval-Copy-442" cx="349" cy="109" r="1"></circle>
            <circle id="Oval-Copy-221" cx="349" cy="61" r="1"></circle>
            <circle id="Oval-Copy-443" cx="349" cy="157" r="1"></circle>
            <circle id="Oval-Copy-55" cx="157" cy="37" r="1"></circle>
            <circle id="Oval-Copy-444" cx="157" cy="133" r="1"></circle>
            <circle id="Oval-Copy-222" cx="157" cy="85" r="1"></circle>
            <circle id="Oval-Copy-111" cx="349" cy="37" r="1"></circle>
            <circle id="Oval-Copy-446" cx="349" cy="133" r="1"></circle>
            <circle id="Oval-Copy-223" cx="349" cy="85" r="1"></circle>
            <circle id="Oval-Copy-112" cx="229" cy="1" r="1"></circle>
            <circle id="Oval-Copy-450" cx="229" cy="97" r="1"></circle>
            <circle id="Oval-Copy-225" cx="229" cy="49" r="1"></circle>
            <circle id="Oval-Copy-451" cx="229" cy="145" r="1"></circle>
            <circle id="Oval-Copy-113" cx="229" cy="25" r="1"></circle>
            <circle id="Oval-Copy-454" cx="229" cy="121" r="1"></circle>
            <circle id="Oval-Copy-227" cx="229" cy="73" r="1"></circle>
            <circle id="Oval-Copy-455" cx="229" cy="169" r="1"></circle>
            <circle id="Oval-Copy-114" cx="229" cy="13" r="1"></circle>
            <circle id="Oval-Copy-458" cx="229" cy="109" r="1"></circle>
            <circle id="Oval-Copy-229" cx="229" cy="61" r="1"></circle>
            <circle id="Oval-Copy-459" cx="229" cy="157" r="1"></circle>
            <circle id="Oval-Copy-115" cx="229" cy="37" r="1"></circle>
            <circle id="Oval-Copy-462" cx="229" cy="133" r="1"></circle>
            <circle id="Oval-Copy-231" cx="229" cy="85" r="1"></circle>
            <circle id="Oval-Copy-14" cx="133" cy="1" r="1"></circle>
            <circle id="Oval-Copy-464" cx="133" cy="97" r="1"></circle>
            <circle id="Oval-Copy-232" cx="133" cy="49" r="1"></circle>
            <circle id="Oval-Copy-465" cx="133" cy="145" r="1"></circle>
            <circle id="Oval-Copy-116" cx="325" cy="1" r="1"></circle>
            <circle id="Oval-Copy-466" cx="325" cy="97" r="1"></circle>
            <circle id="Oval-Copy-233" cx="325" cy="49" r="1"></circle>
            <circle id="Oval-Copy-467" cx="325" cy="145" r="1"></circle>
            <circle id="Oval-Copy-58" cx="133" cy="25" r="1"></circle>
            <circle id="Oval-Copy-468" cx="133" cy="121" r="1"></circle>
            <circle id="Oval-Copy-234" cx="133" cy="73" r="1"></circle>
            <circle id="Oval-Copy-469" cx="133" cy="169" r="1"></circle>
            <circle id="Oval-Copy-117" cx="325" cy="25" r="1"></circle>
            <circle id="Oval-Copy-470" cx="325" cy="121" r="1"></circle>
            <circle id="Oval-Copy-235" cx="325" cy="73" r="1"></circle>
            <circle id="Oval-Copy-471" cx="325" cy="169" r="1"></circle>
            <circle id="Oval-Copy-29" cx="133" cy="13" r="1"></circle>
            <circle id="Oval-Copy-472" cx="133" cy="109" r="1"></circle>
            <circle id="Oval-Copy-236" cx="133" cy="61" r="1"></circle>
            <circle id="Oval-Copy-473" cx="133" cy="157" r="1"></circle>
            <circle id="Oval-Copy-118" cx="325" cy="13" r="1"></circle>
            <circle id="Oval-Copy-474" cx="325" cy="109" r="1"></circle>
            <circle id="Oval-Copy-237" cx="325" cy="61" r="1"></circle>
            <circle id="Oval-Copy-475" cx="325" cy="157" r="1"></circle>
            <circle id="Oval-Copy-59" cx="133" cy="37" r="1"></circle>
            <circle id="Oval-Copy-476" cx="133" cy="133" r="1"></circle>
            <circle id="Oval-Copy-238" cx="133" cy="85" r="1"></circle>
            <circle id="Oval-Copy-119" cx="325" cy="37" r="1"></circle>
            <circle id="Oval-Copy-478" cx="325" cy="133" r="1"></circle>
            <circle id="Oval-Copy-239" cx="325" cy="85" r="1"></circle>
            <circle id="Oval-Copy-7" cx="85" cy="1" r="1"></circle>
            <circle id="Oval-Copy-480" cx="85" cy="97" r="1"></circle>
            <circle id="Oval-Copy-240" cx="85" cy="49" r="1"></circle>
            <circle id="Oval-Copy-481" cx="85" cy="145" r="1"></circle>
            <circle id="Oval-Copy-120" cx="277" cy="1" r="1"></circle>
            <circle id="Oval-Copy-482" cx="277" cy="97" r="1"></circle>
            <circle id="Oval-Copy-241" cx="277" cy="49" r="1"></circle>
            <circle id="Oval-Copy-483" cx="277" cy="145" r="1"></circle>
            <circle id="Oval-Copy-60" cx="85" cy="25" r="1"></circle>
            <circle id="Oval-Copy-484" cx="85" cy="121" r="1"></circle>
            <circle id="Oval-Copy-242" cx="85" cy="73" r="1"></circle>
            <circle id="Oval-Copy-485" cx="85" cy="169" r="1"></circle>
            <circle id="Oval-Copy-121" cx="277" cy="25" r="1"></circle>
            <circle id="Oval-Copy-486" cx="277" cy="121" r="1"></circle>
            <circle id="Oval-Copy-243" cx="277" cy="73" r="1"></circle>
            <circle id="Oval-Copy-487" cx="277" cy="169" r="1"></circle>
            <circle id="Oval-Copy-30" cx="85" cy="13" r="1"></circle>
            <circle id="Oval-Copy-488" cx="85" cy="109" r="1"></circle>
            <circle id="Oval-Copy-244" cx="85" cy="61" r="1"></circle>
            <circle id="Oval-Copy-489" cx="85" cy="157" r="1"></circle>
            <circle id="Oval-Copy-122" cx="277" cy="13" r="1"></circle>
            <circle id="Oval-Copy-490" cx="277" cy="109" r="1"></circle>
            <circle id="Oval-Copy-245" cx="277" cy="61" r="1"></circle>
            <circle id="Oval-Copy-491" cx="277" cy="157" r="1"></circle>
            <circle id="Oval-Copy-61" cx="85" cy="37" r="1"></circle>
            <circle id="Oval-Copy-492" cx="85" cy="133" r="1"></circle>
            <circle id="Oval-Copy-246" cx="85" cy="85" r="1"></circle>
            <circle id="Oval-Copy-123" cx="277" cy="37" r="1"></circle>
            <circle id="Oval-Copy-494" cx="277" cy="133" r="1"></circle>
            <circle id="Oval-Copy-247" cx="277" cy="85" r="1"></circle>
            <circle id="Oval-Copy-15" cx="181" cy="1" r="1"></circle>
            <circle id="Oval-Copy-496" cx="181" cy="97" r="1"></circle>
            <circle id="Oval-Copy-248" cx="181" cy="49" r="1"></circle>
            <circle id="Oval-Copy-497" cx="181" cy="145" r="1"></circle>
            <circle id="Oval-Copy-124" cx="373" cy="1" r="1"></circle>
            <circle id="Oval-Copy-498" cx="373" cy="97" r="1"></circle>
            <circle id="Oval-Copy-249" cx="373" cy="49" r="1"></circle>
            <circle id="Oval-Copy-499" cx="373" cy="145" r="1"></circle>
            <circle id="Oval-Copy-62" cx="181" cy="25" r="1"></circle>
            <circle id="Oval-Copy-500" cx="181" cy="121" r="1"></circle>
            <circle id="Oval-Copy-250" cx="181" cy="73" r="1"></circle>
            <circle id="Oval-Copy-501" cx="181" cy="169" r="1"></circle>
            <circle id="Oval-Copy-125" cx="373" cy="25" r="1"></circle>
            <circle id="Oval-Copy-502" cx="373" cy="121" r="1"></circle>
            <circle id="Oval-Copy-251" cx="373" cy="73" r="1"></circle>
            <circle id="Oval-Copy-503" cx="373" cy="169" r="1"></circle>
            <circle id="Oval-Copy-31" cx="181" cy="13" r="1"></circle>
            <circle id="Oval-Copy-504" cx="181" cy="109" r="1"></circle>
            <circle id="Oval-Copy-252" cx="181" cy="61" r="1"></circle>
            <circle id="Oval-Copy-505" cx="181" cy="157" r="1"></circle>
            <circle id="Oval-Copy-126" cx="373" cy="13" r="1"></circle>
            <circle id="Oval-Copy-506" cx="373" cy="109" r="1"></circle>
            <circle id="Oval-Copy-253" cx="373" cy="61" r="1"></circle>
            <circle id="Oval-Copy-507" cx="373" cy="157" r="1"></circle>
            <circle id="Oval-Copy-63" cx="181" cy="37" r="1"></circle>
            <circle id="Oval-Copy-508" cx="181" cy="133" r="1"></circle>
            <circle id="Oval-Copy-254" cx="181" cy="85" r="1"></circle>
            <circle id="Oval-Copy-127" cx="373" cy="37" r="1"></circle>
            <circle id="Oval-Copy-510" cx="373" cy="133" r="1"></circle>
            <circle id="Oval-Copy-255" cx="373" cy="85" r="1"></circle>
        </g>
        <path d="M658.708311,745.55916 L722.05972,844.299978 C723.550901,846.624163 722.875618,849.71713 720.551432,851.208311 C719.745763,851.725222 718.808645,852 717.851409,852 L591.148591,852 C588.387167,852 586.148591,849.761424 586.148591,847 C586.148591,846.042764 586.423368,845.105647 586.94028,844.299978 L650.291689,745.55916 C651.78287,743.234974 654.875837,742.559691 657.200022,744.050872 C657.805422,744.439292 658.31989,744.95376 658.708311,745.55916 Z" id="Triangle" fill="#FBF6F4"></path>
        <circle id="Oval" fill="#FBF6F4" cx="47.5" cy="205.5" r="92.5"></circle>
    </g>
</svg>