<?xml version="1.0" encoding="UTF-8"?>
<svg width="768px" height="1024px" viewBox="0 0 768 1024" version="1.1" xmlns="http://www.w3.org/2000/svg" xmlns:xlink="http://www.w3.org/1999/xlink">
    <!-- Generator: Sketch 62 (91390) - https://sketch.com -->
    <title>About_Tab</title>
    <desc>Created with Sketch.</desc>
    <g id="About_Tab" stroke="none" stroke-width="1" fill="none" fill-rule="evenodd">
        <circle id="Oval" fill="#FBF6F4" cx="594.5" cy="301.5" r="92.5"></circle>
        <g id="Group-2-Copy-5" transform="translate(502.000000, 927.000000)" fill="#8E7F79">
            <circle id="Oval" cx="1" cy="1" r="1"></circle>
            <circle id="Oval-Copy-256" cx="1" cy="97" r="1"></circle>
            <circle id="Oval-Copy-128" cx="1" cy="49" r="1"></circle>
            <circle id="Oval-Copy-64" cx="193" cy="1" r="1"></circle>
            <circle id="Oval-Copy-258" cx="193" cy="97" r="1"></circle>
            <circle id="Oval-Copy-129" cx="193" cy="49" r="1"></circle>
            <circle id="Oval-Copy-32" cx="1" cy="25" r="1"></circle>
            <circle id="Oval-Copy-130" cx="1" cy="73" r="1"></circle>
            <circle id="Oval-Copy-65" cx="193" cy="25" r="1"></circle>
            <circle id="Oval-Copy-131" cx="193" cy="73" r="1"></circle>
            <circle id="Oval-Copy-16" cx="1" cy="13" r="1"></circle>
            <circle id="Oval-Copy-132" cx="1" cy="61" r="1"></circle>
            <circle id="Oval-Copy-66" cx="193" cy="13" r="1"></circle>
            <circle id="Oval-Copy-133" cx="193" cy="61" r="1"></circle>
            <circle id="Oval-Copy-33" cx="1" cy="37" r="1"></circle>
            <circle id="Oval-Copy-134" cx="1" cy="85" r="1"></circle>
            <circle id="Oval-Copy-67" cx="193" cy="37" r="1"></circle>
            <circle id="Oval-Copy-135" cx="193" cy="85" r="1"></circle>
            <circle id="Oval-Copy-8" cx="97" cy="1" r="1"></circle>
            <circle id="Oval-Copy-272" cx="97" cy="97" r="1"></circle>
            <circle id="Oval-Copy-136" cx="97" cy="49" r="1"></circle>
            <circle id="Oval-Copy-34" cx="97" cy="25" r="1"></circle>
            <circle id="Oval-Copy-138" cx="97" cy="73" r="1"></circle>
            <circle id="Oval-Copy-17" cx="97" cy="13" r="1"></circle>
            <circle id="Oval-Copy-140" cx="97" cy="61" r="1"></circle>
            <circle id="Oval-Copy-35" cx="97" cy="37" r="1"></circle>
            <circle id="Oval-Copy-142" cx="97" cy="85" r="1"></circle>
            <circle id="Oval-Copy-4" cx="49" cy="1" r="1"></circle>
            <circle id="Oval-Copy-288" cx="49" cy="97" r="1"></circle>
            <circle id="Oval-Copy-144" cx="49" cy="49" r="1"></circle>
            <circle id="Oval-Copy-72" cx="241" cy="1" r="1"></circle>
            <circle id="Oval-Copy-290" cx="241" cy="97" r="1"></circle>
            <circle id="Oval-Copy-145" cx="241" cy="49" r="1"></circle>
            <circle id="Oval-Copy-36" cx="49" cy="25" r="1"></circle>
            <circle id="Oval-Copy-146" cx="49" cy="73" r="1"></circle>
            <circle id="Oval-Copy-73" cx="241" cy="25" r="1"></circle>
            <circle id="Oval-Copy-147" cx="241" cy="73" r="1"></circle>
            <circle id="Oval-Copy-18" cx="49" cy="13" r="1"></circle>
            <circle id="Oval-Copy-148" cx="49" cy="61" r="1"></circle>
            <circle id="Oval-Copy-74" cx="241" cy="13" r="1"></circle>
            <circle id="Oval-Copy-149" cx="241" cy="61" r="1"></circle>
            <circle id="Oval-Copy-37" cx="49" cy="37" r="1"></circle>
            <circle id="Oval-Copy-150" cx="49" cy="85" r="1"></circle>
            <circle id="Oval-Copy-75" cx="241" cy="37" r="1"></circle>
            <circle id="Oval-Copy-151" cx="241" cy="85" r="1"></circle>
            <circle id="Oval-Copy-9" cx="145" cy="1" r="1"></circle>
            <circle id="Oval-Copy-304" cx="145" cy="97" r="1"></circle>
            <circle id="Oval-Copy-152" cx="145" cy="49" r="1"></circle>
            <circle id="Oval-Copy-38" cx="145" cy="25" r="1"></circle>
            <circle id="Oval-Copy-154" cx="145" cy="73" r="1"></circle>
            <circle id="Oval-Copy-19" cx="145" cy="13" r="1"></circle>
            <circle id="Oval-Copy-156" cx="145" cy="61" r="1"></circle>
            <circle id="Oval-Copy-39" cx="145" cy="37" r="1"></circle>
            <circle id="Oval-Copy-158" cx="145" cy="85" r="1"></circle>
            <circle id="Oval-Copy-2" cx="25" cy="1" r="1"></circle>
            <circle id="Oval-Copy-320" cx="25" cy="97" r="1"></circle>
            <circle id="Oval-Copy-160" cx="25" cy="49" r="1"></circle>
            <circle id="Oval-Copy-80" cx="217" cy="1" r="1"></circle>
            <circle id="Oval-Copy-322" cx="217" cy="97" r="1"></circle>
            <circle id="Oval-Copy-161" cx="217" cy="49" r="1"></circle>
            <circle id="Oval-Copy-40" cx="25" cy="25" r="1"></circle>
            <circle id="Oval-Copy-162" cx="25" cy="73" r="1"></circle>
            <circle id="Oval-Copy-81" cx="217" cy="25" r="1"></circle>
            <circle id="Oval-Copy-163" cx="217" cy="73" r="1"></circle>
            <circle id="Oval-Copy-20" cx="25" cy="13" r="1"></circle>
            <circle id="Oval-Copy-164" cx="25" cy="61" r="1"></circle>
            <circle id="Oval-Copy-82" cx="217" cy="13" r="1"></circle>
            <circle id="Oval-Copy-165" cx="217" cy="61" r="1"></circle>
            <circle id="Oval-Copy-41" cx="25" cy="37" r="1"></circle>
            <circle id="Oval-Copy-166" cx="25" cy="85" r="1"></circle>
            <circle id="Oval-Copy-83" cx="217" cy="37" r="1"></circle>
            <circle id="Oval-Copy-167" cx="217" cy="85" r="1"></circle>
            <circle id="Oval-Copy-10" cx="121" cy="1" r="1"></circle>
            <circle id="Oval-Copy-336" cx="121" cy="97" r="1"></circle>
            <circle id="Oval-Copy-168" cx="121" cy="49" r="1"></circle>
            <circle id="Oval-Copy-42" cx="121" cy="25" r="1"></circle>
            <circle id="Oval-Copy-170" cx="121" cy="73" r="1"></circle>
            <circle id="Oval-Copy-21" cx="121" cy="13" r="1"></circle>
            <circle id="Oval-Copy-172" cx="121" cy="61" r="1"></circle>
            <circle id="Oval-Copy-43" cx="121" cy="37" r="1"></circle>
            <circle id="Oval-Copy-174" cx="121" cy="85" r="1"></circle>
            <circle id="Oval-Copy-5" cx="73" cy="1" r="1"></circle>
            <circle id="Oval-Copy-352" cx="73" cy="97" r="1"></circle>
            <circle id="Oval-Copy-176" cx="73" cy="49" r="1"></circle>
            <circle id="Oval-Copy-88" cx="265" cy="1" r="1"></circle>
            <circle id="Oval-Copy-354" cx="265" cy="97" r="1"></circle>
            <circle id="Oval-Copy-177" cx="265" cy="49" r="1"></circle>
            <circle id="Oval-Copy-44" cx="73" cy="25" r="1"></circle>
            <circle id="Oval-Copy-178" cx="73" cy="73" r="1"></circle>
            <circle id="Oval-Copy-89" cx="265" cy="25" r="1"></circle>
            <circle id="Oval-Copy-179" cx="265" cy="73" r="1"></circle>
            <circle id="Oval-Copy-22" cx="73" cy="13" r="1"></circle>
            <circle id="Oval-Copy-180" cx="73" cy="61" r="1"></circle>
            <circle id="Oval-Copy-90" cx="265" cy="13" r="1"></circle>
            <circle id="Oval-Copy-181" cx="265" cy="61" r="1"></circle>
            <circle id="Oval-Copy-45" cx="73" cy="37" r="1"></circle>
            <circle id="Oval-Copy-182" cx="73" cy="85" r="1"></circle>
            <circle id="Oval-Copy-91" cx="265" cy="37" r="1"></circle>
            <circle id="Oval-Copy-183" cx="265" cy="85" r="1"></circle>
            <circle id="Oval-Copy-11" cx="169" cy="1" r="1"></circle>
            <circle id="Oval-Copy-368" cx="169" cy="97" r="1"></circle>
            <circle id="Oval-Copy-184" cx="169" cy="49" r="1"></circle>
            <circle id="Oval-Copy-46" cx="169" cy="25" r="1"></circle>
            <circle id="Oval-Copy-186" cx="169" cy="73" r="1"></circle>
            <circle id="Oval-Copy-23" cx="169" cy="13" r="1"></circle>
            <circle id="Oval-Copy-188" cx="169" cy="61" r="1"></circle>
            <circle id="Oval-Copy-47" cx="169" cy="37" r="1"></circle>
            <circle id="Oval-Copy-190" cx="169" cy="85" r="1"></circle>
            <circle id="Oval-Copy" cx="13" cy="1" r="1"></circle>
            <circle id="Oval-Copy-384" cx="13" cy="97" r="1"></circle>
            <circle id="Oval-Copy-192" cx="13" cy="49" r="1"></circle>
            <circle id="Oval-Copy-96" cx="205" cy="1" r="1"></circle>
            <circle id="Oval-Copy-386" cx="205" cy="97" r="1"></circle>
            <circle id="Oval-Copy-193" cx="205" cy="49" r="1"></circle>
            <circle id="Oval-Copy-48" cx="13" cy="25" r="1"></circle>
            <circle id="Oval-Copy-194" cx="13" cy="73" r="1"></circle>
            <circle id="Oval-Copy-97" cx="205" cy="25" r="1"></circle>
            <circle id="Oval-Copy-195" cx="205" cy="73" r="1"></circle>
            <circle id="Oval-Copy-24" cx="13" cy="13" r="1"></circle>
            <circle id="Oval-Copy-196" cx="13" cy="61" r="1"></circle>
            <circle id="Oval-Copy-98" cx="205" cy="13" r="1"></circle>
            <circle id="Oval-Copy-197" cx="205" cy="61" r="1"></circle>
            <circle id="Oval-Copy-49" cx="13" cy="37" r="1"></circle>
            <circle id="Oval-Copy-198" cx="13" cy="85" r="1"></circle>
            <circle id="Oval-Copy-99" cx="205" cy="37" r="1"></circle>
            <circle id="Oval-Copy-199" cx="205" cy="85" r="1"></circle>
            <circle id="Oval-Copy-12" cx="109" cy="1" r="1"></circle>
            <circle id="Oval-Copy-400" cx="109" cy="97" r="1"></circle>
            <circle id="Oval-Copy-200" cx="109" cy="49" r="1"></circle>
            <circle id="Oval-Copy-50" cx="109" cy="25" r="1"></circle>
            <circle id="Oval-Copy-202" cx="109" cy="73" r="1"></circle>
            <circle id="Oval-Copy-25" cx="109" cy="13" r="1"></circle>
            <circle id="Oval-Copy-204" cx="109" cy="61" r="1"></circle>
            <circle id="Oval-Copy-51" cx="109" cy="37" r="1"></circle>
            <circle id="Oval-Copy-206" cx="109" cy="85" r="1"></circle>
            <circle id="Oval-Copy-6" cx="61" cy="1" r="1"></circle>
            <circle id="Oval-Copy-416" cx="61" cy="97" r="1"></circle>
            <circle id="Oval-Copy-208" cx="61" cy="49" r="1"></circle>
            <circle id="Oval-Copy-104" cx="253" cy="1" r="1"></circle>
            <circle id="Oval-Copy-418" cx="253" cy="97" r="1"></circle>
            <circle id="Oval-Copy-209" cx="253" cy="49" r="1"></circle>
            <circle id="Oval-Copy-52" cx="61" cy="25" r="1"></circle>
            <circle id="Oval-Copy-210" cx="61" cy="73" r="1"></circle>
            <circle id="Oval-Copy-105" cx="253" cy="25" r="1"></circle>
            <circle id="Oval-Copy-211" cx="253" cy="73" r="1"></circle>
            <circle id="Oval-Copy-26" cx="61" cy="13" r="1"></circle>
            <circle id="Oval-Copy-212" cx="61" cy="61" r="1"></circle>
            <circle id="Oval-Copy-106" cx="253" cy="13" r="1"></circle>
            <circle id="Oval-Copy-213" cx="253" cy="61" r="1"></circle>
            <circle id="Oval-Copy-53" cx="61" cy="37" r="1"></circle>
            <circle id="Oval-Copy-214" cx="61" cy="85" r="1"></circle>
            <circle id="Oval-Copy-107" cx="253" cy="37" r="1"></circle>
            <circle id="Oval-Copy-215" cx="253" cy="85" r="1"></circle>
            <circle id="Oval-Copy-13" cx="157" cy="1" r="1"></circle>
            <circle id="Oval-Copy-432" cx="157" cy="97" r="1"></circle>
            <circle id="Oval-Copy-216" cx="157" cy="49" r="1"></circle>
            <circle id="Oval-Copy-54" cx="157" cy="25" r="1"></circle>
            <circle id="Oval-Copy-218" cx="157" cy="73" r="1"></circle>
            <circle id="Oval-Copy-27" cx="157" cy="13" r="1"></circle>
            <circle id="Oval-Copy-220" cx="157" cy="61" r="1"></circle>
            <circle id="Oval-Copy-55" cx="157" cy="37" r="1"></circle>
            <circle id="Oval-Copy-222" cx="157" cy="85" r="1"></circle>
            <circle id="Oval-Copy-3" cx="37" cy="1" r="1"></circle>
            <circle id="Oval-Copy-448" cx="37" cy="97" r="1"></circle>
            <circle id="Oval-Copy-224" cx="37" cy="49" r="1"></circle>
            <circle id="Oval-Copy-112" cx="229" cy="1" r="1"></circle>
            <circle id="Oval-Copy-450" cx="229" cy="97" r="1"></circle>
            <circle id="Oval-Copy-225" cx="229" cy="49" r="1"></circle>
            <circle id="Oval-Copy-56" cx="37" cy="25" r="1"></circle>
            <circle id="Oval-Copy-226" cx="37" cy="73" r="1"></circle>
            <circle id="Oval-Copy-113" cx="229" cy="25" r="1"></circle>
            <circle id="Oval-Copy-227" cx="229" cy="73" r="1"></circle>
            <circle id="Oval-Copy-28" cx="37" cy="13" r="1"></circle>
            <circle id="Oval-Copy-228" cx="37" cy="61" r="1"></circle>
            <circle id="Oval-Copy-114" cx="229" cy="13" r="1"></circle>
            <circle id="Oval-Copy-229" cx="229" cy="61" r="1"></circle>
            <circle id="Oval-Copy-57" cx="37" cy="37" r="1"></circle>
            <circle id="Oval-Copy-230" cx="37" cy="85" r="1"></circle>
            <circle id="Oval-Copy-115" cx="229" cy="37" r="1"></circle>
            <circle id="Oval-Copy-231" cx="229" cy="85" r="1"></circle>
            <circle id="Oval-Copy-14" cx="133" cy="1" r="1"></circle>
            <circle id="Oval-Copy-464" cx="133" cy="97" r="1"></circle>
            <circle id="Oval-Copy-232" cx="133" cy="49" r="1"></circle>
            <circle id="Oval-Copy-58" cx="133" cy="25" r="1"></circle>
            <circle id="Oval-Copy-234" cx="133" cy="73" r="1"></circle>
            <circle id="Oval-Copy-29" cx="133" cy="13" r="1"></circle>
            <circle id="Oval-Copy-236" cx="133" cy="61" r="1"></circle>
            <circle id="Oval-Copy-59" cx="133" cy="37" r="1"></circle>
            <circle id="Oval-Copy-238" cx="133" cy="85" r="1"></circle>
            <circle id="Oval-Copy-7" cx="85" cy="1" r="1"></circle>
            <circle id="Oval-Copy-480" cx="85" cy="97" r="1"></circle>
            <circle id="Oval-Copy-240" cx="85" cy="49" r="1"></circle>
            <circle id="Oval-Copy-60" cx="85" cy="25" r="1"></circle>
            <circle id="Oval-Copy-242" cx="85" cy="73" r="1"></circle>
            <circle id="Oval-Copy-30" cx="85" cy="13" r="1"></circle>
            <circle id="Oval-Copy-244" cx="85" cy="61" r="1"></circle>
            <circle id="Oval-Copy-61" cx="85" cy="37" r="1"></circle>
            <circle id="Oval-Copy-246" cx="85" cy="85" r="1"></circle>
            <circle id="Oval-Copy-15" cx="181" cy="1" r="1"></circle>
            <circle id="Oval-Copy-496" cx="181" cy="97" r="1"></circle>
            <circle id="Oval-Copy-248" cx="181" cy="49" r="1"></circle>
            <circle id="Oval-Copy-62" cx="181" cy="25" r="1"></circle>
            <circle id="Oval-Copy-250" cx="181" cy="73" r="1"></circle>
            <circle id="Oval-Copy-31" cx="181" cy="13" r="1"></circle>
            <circle id="Oval-Copy-252" cx="181" cy="61" r="1"></circle>
            <circle id="Oval-Copy-63" cx="181" cy="37" r="1"></circle>
            <circle id="Oval-Copy-254" cx="181" cy="85" r="1"></circle>
        </g>
        <path d="M110.708311,842.55916 L174.05972,941.299978 C175.550901,943.624163 174.875618,946.71713 172.551432,948.208311 C171.745763,948.725222 170.808645,949 169.851409,949 L43.1485906,949 C40.3871668,949 38.1485906,946.761424 38.1485906,944 C38.1485906,943.042764 38.4233684,942.105647 38.9402798,941.299978 L102.291689,842.55916 C103.78287,840.234974 106.875837,839.559691 109.200022,841.050872 C109.805422,841.439292 110.31989,841.95376 110.708311,842.55916 Z" id="Triangle" fill="#FBF6F4"></path>
    </g>
</svg>